{
    "asset" : {
        "generator" : "Khronos glTF Blender I/O v3.2.40",
        "version" : "2.0"
    },
    "extensionsUsed" : [
        "KHR_materials_clearcoat"
    ],
    "scene" : 0,
    "scenes" : [
        {
            "name" : "Scene",
            "nodes" : [
                0,
                1,
                2,
                3,
                4,
                5,
                6
            ]
        }
    ],
    "nodes" : [
        {
            "mesh" : 0,
            "name" : "Cube",
            "rotation" : [
                -0.13917309045791626,
                0,
                0,
                0.9902681112289429
            ],
            "scale" : [
                1.600000023841858,
                0.8999999761581421,
                1
            ],
            "translation" : [
                0,
                -1.0764434337615967,
                0
            ]
        },
        {
            "mesh" : 1,
            "name" : "Cube.001",
            "rotation" : [
                0.7071068286895752,
                0,
                0,
                0.7071068286895752
            ],
            "scale" : [
                1.600000023841858,
                0.8999999761581421,
                1
            ],
            "translation" : [
                0,
                -1.0770728588104248,
                1.021552562713623
            ]
        },
        {
            "mesh" : 2,
            "name" : "Cylinder",
            "rotation" : [
                0,
                0,
                -0.7071067094802856,
                0.7071068286895752
            ],
            "translation" : [
                -1.543044090270996,
                -1.0770313739776611,
                0
            ]
        },
        {
            "mesh" : 3,
            "name" : "Cylinder.001",
            "rotation" : [
                -0.13917309045791626,
                0,
                0,
                0.9902681112289429
            ],
            "translation" : [
                0,
                -1.0853310823440552,
                -0.01471436582505703
            ]
        },
        {
            "mesh" : 4,
            "name" : "Cylinder.002",
            "rotation" : [
                0,
                0,
                -0.7071067094802856,
                0.7071068286895752
            ],
            "translation" : [
                1.5430443286895752,
                -1.0770313739776611,
                0
            ]
        },
        {
            "mesh" : 5,
            "name" : "Cube.002",
            "translation" : [
                -1.2779706716537476,
                -1.059211015701294,
                0.48804935812950134
            ]
        },
        {
            "mesh" : 6,
            "name" : "Cube.003",
            "translation" : [
                -1.2779706716537476,
                -1.059211015701294,
                0.6842689514160156
            ]
        }
    ],
    "materials" : [
        {
            "doubleSided" : true,
            "name" : "Material.002",
            "pbrMetallicRoughness" : {
                "baseColorFactor" : [
                    0,
                    0,
                    0,
                    1
                ],
                "metallicFactor" : 0,
                "roughnessFactor" : 0.4000000059604645
            }
        },
        {
            "doubleSided" : true,
            "extensions" : {
                "KHR_materials_clearcoat" : {
                    "clearcoatFactor" : 0.5,
                    "clearcoatRoughnessFactor" : 0.029999999329447746
                }
            },
            "name" : "Screen",
            "pbrMetallicRoughness" : {
                "baseColorTexture" : {
                    "index" : 0
                },
                "metallicFactor" : 0,
                "roughnessFactor" : 0.5
            }
        },
        {
            "doubleSided" : true,
            "name" : "Chassi",
            "pbrMetallicRoughness" : {
                "baseColorFactor" : [
                    0.800000011920929,
                    0.800000011920929,
                    0.800000011920929,
                    1
                ],
                "metallicFactor" : 0,
                "roughnessFactor" : 0.5
            }
        },
        {
            "doubleSided" : true,
            "name" : "Material.001",
            "pbrMetallicRoughness" : {
                "baseColorFactor" : [
                    0.024808308109641075,
                    0.024808308109641075,
                    0.024808308109641075,
                    1
                ],
                "metallicFactor" : 0,
                "roughnessFactor" : 0.5
            }
        },
        {
            "doubleSided" : true,
            "name" : "Keyboard",
            "pbrMetallicRoughness" : {
                "baseColorFactor" : [
                    0.362459659576416,
                    0.362459659576416,
                    0.362459659576416,
                    1
                ],
                "roughnessFactor" : 0.800000011920929
            }
        }
    ],
    "meshes" : [
        {
            "name" : "Cube",
            "primitives" : [
                {
                    "attributes" : {
                        "POSITION" : 0,
                        "NORMAL" : 1,
                        "TEXCOORD_0" : 2,
                        "TEXCOORD_1" : 3
                    },
                    "indices" : 4,
                    "material" : 0
                },
                {
                    "attributes" : {
                        "POSITION" : 5,
                        "NORMAL" : 6,
                        "TEXCOORD_0" : 7,
                        "TEXCOORD_1" : 8
                    },
                    "indices" : 9,
                    "material" : 1
                }
            ]
        },
        {
            "name" : "Cube.001",
            "primitives" : [
                {
                    "attributes" : {
                        "POSITION" : 10,
                        "NORMAL" : 11,
                        "TEXCOORD_0" : 12
                    },
                    "indices" : 13,
                    "material" : 0
                },
                {
                    "attributes" : {
                        "POSITION" : 14,
                        "NORMAL" : 15,
                        "TEXCOORD_0" : 16
                    },
                    "indices" : 17,
                    "material" : 2
                }
            ]
        },
        {
            "name" : "Cylinder",
            "primitives" : [
                {
                    "attributes" : {
                        "POSITION" : 18,
                        "NORMAL" : 19,
                        "TEXCOORD_0" : 20
                    },
                    "indices" : 21,
                    "material" : 0
                }
            ]
        },
        {
            "name" : "Cylinder.001",
            "primitives" : [
                {
                    "attributes" : {
                        "POSITION" : 22,
                        "NORMAL" : 23,
                        "TEXCOORD_0" : 24
                    },
                    "indices" : 25,
                    "material" : 3
                }
            ]
        },
        {
            "name" : "Cylinder.002",
            "primitives" : [
                {
                    "attributes" : {
                        "POSITION" : 26,
                        "NORMAL" : 27,
                        "TEXCOORD_0" : 28
                    },
                    "indices" : 21,
                    "material" : 0
                }
            ]
        },
        {
            "name" : "Cube.002",
            "primitives" : [
                {
                    "attributes" : {
                        "POSITION" : 29,
                        "NORMAL" : 30,
                        "TEXCOORD_0" : 31
                    },
                    "indices" : 32,
                    "material" : 4
                }
            ]
        },
        {
            "name" : "Cube.003",
            "primitives" : [
                {
                    "attributes" : {
                        "POSITION" : 33,
                        "NORMAL" : 34,
                        "TEXCOORD_0" : 35
                    },
                    "indices" : 36,
                    "material" : 4
                }
            ]
        }
    ],
    "textures" : [
        {
            "sampler" : 0,
            "source" : 0
        }
    ],
    "images" : [
        {
            "bufferView" : 10,
            "mimeType" : "image/png",
            "name" : "PNG"
        }
    ],
    "accessors" : [
        {
            "bufferView" : 0,
            "componentType" : 5126,
            "count" : 54,
            "max" : [
                1.0255755186080933,
                2.2606706619262695,
                0.012523476034402847
            ],
            "min" : [
                -1.0255755186080933,
                0.030145201832056046,
                -0.012219797819852829
            ],
            "type" : "VEC3"
        },
        {
            "bufferView" : 1,
            "componentType" : 5126,
            "count" : 54,
            "type" : "VEC3"
        },
        {
            "bufferView" : 2,
            "componentType" : 5126,
            "count" : 54,
            "type" : "VEC2"
        },
        {
            "bufferView" : 3,
            "componentType" : 5126,
            "count" : 54,
            "type" : "VEC2"
        },
        {
            "bufferView" : 4,
            "componentType" : 5123,
            "count" : 102,
            "type" : "SCALAR"
        },
        {
            "bufferView" : 5,
            "componentType" : 5126,
            "count" : 4,
            "max" : [
                1,
                2.1960482597351074,
                -0.0025574397295713425
            ],
            "min" : [
                -1,
                0.1960482895374298,
                -0.0025574397295713425
            ],
            "type" : "VEC3"
        },
        {
            "bufferView" : 6,
            "componentType" : 5126,
            "count" : 4,
            "type" : "VEC3"
        },
        {
            "bufferView" : 7,
            "componentType" : 5126,
            "count" : 4,
            "type" : "VEC2"
        },
        {
            "bufferView" : 8,
            "componentType" : 5126,
            "count" : 4,
            "type" : "VEC2"
        },
        {
            "bufferView" : 9,
            "componentType" : 5123,
            "count" : 6,
            "type" : "SCALAR"
        },
        {
            "bufferView" : 11,
            "componentType" : 5126,
            "count" : 783,
            "max" : [
                1.0255755186080933,
                1.0646226406097412,
                0.027760129421949387
            ],
            "min" : [
                -1.0255756378173828,
                -1.165903091430664,
                -0.027760101482272148
            ],
            "type" : "VEC3"
        },
        {
            "bufferView" : 12,
            "componentType" : 5126,
            "count" : 783,
            "type" : "VEC3"
        },
        {
            "bufferView" : 13,
            "componentType" : 5126,
            "count" : 783,
            "type" : "VEC2"
        },
        {
            "bufferView" : 14,
            "componentType" : 5123,
            "count" : 2736,
            "type" : "SCALAR"
        },
        {
            "bufferView" : 15,
            "componentType" : 5126,
            "count" : 52,
            "max" : [
                -1.0011523962020874,
                -0.901546835899353,
                0.005099727772176266
            ],
            "min" : [
                -1.0200167894363403,
                -0.9136502146720886,
                -0.005100186914205551
            ],
            "type" : "VEC3"
        },
        {
            "bufferView" : 16,
            "componentType" : 5126,
            "count" : 52,
            "type" : "VEC3"
        },
        {
            "bufferView" : 17,
            "componentType" : 5126,
            "count" : 52,
            "type" : "VEC2"
        },
        {
            "bufferView" : 18,
            "componentType" : 5123,
            "count" : 156,
            "type" : "SCALAR"
        },
        {
            "bufferView" : 19,
            "componentType" : 5126,
            "count" : 100,
            "max" : [
                0.02588040940463543,
                0.0832061767578125,
                0.02588043175637722
            ],
            "min" : [
                -0.02588043361902237,
                -0.0832052230834961,
                -0.025880400091409683
            ],
            "type" : "VEC3"
        },
        {
            "bufferView" : 20,
            "componentType" : 5126,
            "count" : 100,
            "type" : "VEC3"
        },
        {
            "bufferView" : 21,
            "componentType" : 5126,
            "count" : 100,
            "type" : "VEC2"
        },
        {
            "bufferView" : 22,
            "componentType" : 5123,
            "count" : 192,
            "type" : "SCALAR"
        },
        {
            "bufferView" : 23,
            "componentType" : 5126,
            "count" : 76,
            "max" : [
                0.021677382290363312,
                2.0318031311035156,
                0.031739741563797
            ],
            "min" : [
                -0.02167719602584839,
                1.9884486198425293,
                0.027760101482272148
            ],
            "type" : "VEC3"
        },
        {
            "bufferView" : 24,
            "componentType" : 5126,
            "count" : 76,
            "type" : "VEC3"
        },
        {
            "bufferView" : 25,
            "componentType" : 5126,
            "count" : 76,
            "type" : "VEC2"
        },
        {
            "bufferView" : 26,
            "componentType" : 5123,
            "count" : 96,
            "type" : "SCALAR"
        },
        {
            "bufferView" : 27,
            "componentType" : 5126,
            "count" : 100,
            "max" : [
                0.02588040940463543,
                0.08320498466491699,
                0.02588043175637722
            ],
            "min" : [
                -0.02588043361902237,
                -0.08320629596710205,
                -0.025880400091409683
            ],
            "type" : "VEC3"
        },
        {
            "bufferView" : 28,
            "componentType" : 5126,
            "count" : 100,
            "type" : "VEC3"
        },
        {
            "bufferView" : 29,
            "componentType" : 5126,
            "count" : 100,
            "type" : "VEC2"
        },
        {
            "bufferView" : 30,
            "componentType" : 5126,
            "count" : 360,
            "max" : [
                2.642472505569458,
                0.009898275136947632,
                0.026421118527650833
            ],
            "min" : [
                -0.057695914059877396,
                -0.009898245334625244,
                -0.026421211659908295
            ],
            "type" : "VEC3"
        },
        {
            "bufferView" : 31,
            "componentType" : 5126,
            "count" : 360,
            "type" : "VEC3"
        },
        {
            "bufferView" : 32,
            "componentType" : 5126,
            "count" : 360,
            "type" : "VEC2"
        },
        {
            "bufferView" : 33,
            "componentType" : 5123,
            "count" : 540,
            "type" : "SCALAR"
        },
        {
            "bufferView" : 34,
            "componentType" : 5126,
            "count" : 1440,
            "max" : [
                2.642472505569458,
                0.009898275136947632,
                0.5284231901168823
            ],
            "min" : [
                -0.057695914059877396,
                -0.009898245334625244,
                -0.05284242331981659
            ],
            "type" : "VEC3"
        },
        {
            "bufferView" : 35,
            "componentType" : 5126,
            "count" : 1440,
            "type" : "VEC3"
        },
        {
            "bufferView" : 36,
            "componentType" : 5126,
            "count" : 1440,
            "type" : "VEC2"
        },
        {
            "bufferView" : 37,
            "componentType" : 5123,
            "count" : 2160,
            "type" : "SCALAR"
        }
    ],
    "bufferViews" : [
        {
            "buffer" : 0,
            "byteLength" : 648,
            "byteOffset" : 0
        },
        {
            "buffer" : 0,
            "byteLength" : 648,
            "byteOffset" : 648
        },
        {
            "buffer" : 0,
            "byteLength" : 432,
            "byteOffset" : 1296
        },
        {
            "buffer" : 0,
            "byteLength" : 432,
            "byteOffset" : 1728
        },
        {
            "buffer" : 0,
            "byteLength" : 204,
            "byteOffset" : 2160
        },
        {
            "buffer" : 0,
            "byteLength" : 48,
            "byteOffset" : 2364
        },
        {
            "buffer" : 0,
            "byteLength" : 48,
            "byteOffset" : 2412
        },
        {
            "buffer" : 0,
            "byteLength" : 32,
            "byteOffset" : 2460
        },
        {
            "buffer" : 0,
            "byteLength" : 32,
            "byteOffset" : 2492
        },
        {
            "buffer" : 0,
            "byteLength" : 12,
            "byteOffset" : 2524
        },
        {
            "buffer" : 0,
            "byteLength" : 25078,
            "byteOffset" : 2536
        },
        {
            "buffer" : 0,
            "byteLength" : 9396,
            "byteOffset" : 27616
        },
        {
            "buffer" : 0,
            "byteLength" : 9396,
            "byteOffset" : 37012
        },
        {
            "buffer" : 0,
            "byteLength" : 6264,
            "byteOffset" : 46408
        },
        {
            "buffer" : 0,
            "byteLength" : 5472,
            "byteOffset" : 52672
        },
        {
            "buffer" : 0,
            "byteLength" : 624,
            "byteOffset" : 58144
        },
        {
            "buffer" : 0,
            "byteLength" : 624,
            "byteOffset" : 58768
        },
        {
            "buffer" : 0,
            "byteLength" : 416,
            "byteOffset" : 59392
        },
        {
            "buffer" : 0,
            "byteLength" : 312,
            "byteOffset" : 59808
        },
        {
            "buffer" : 0,
            "byteLength" : 1200,
            "byteOffset" : 60120
        },
        {
            "buffer" : 0,
            "byteLength" : 1200,
            "byteOffset" : 61320
        },
        {
            "buffer" : 0,
            "byteLength" : 800,
            "byteOffset" : 62520
        },
        {
            "buffer" : 0,
            "byteLength" : 384,
            "byteOffset" : 63320
        },
        {
            "buffer" : 0,
            "byteLength" : 912,
            "byteOffset" : 63704
        },
        {
            "buffer" : 0,
            "byteLength" : 912,
            "byteOffset" : 64616
        },
        {
            "buffer" : 0,
            "byteLength" : 608,
            "byteOffset" : 65528
        },
        {
            "buffer" : 0,
            "byteLength" : 192,
            "byteOffset" : 66136
        },
        {
            "buffer" : 0,
            "byteLength" : 1200,
            "byteOffset" : 66328
        },
        {
            "buffer" : 0,
            "byteLength" : 1200,
            "byteOffset" : 67528
        },
        {
            "buffer" : 0,
            "byteLength" : 800,
            "byteOffset" : 68728
        },
        {
            "buffer" : 0,
            "byteLength" : 4320,
            "byteOffset" : 69528
        },
        {
            "buffer" : 0,
            "byteLength" : 4320,
            "byteOffset" : 73848
        },
        {
            "buffer" : 0,
            "byteLength" : 2880,
            "byteOffset" : 78168
        },
        {
            "buffer" : 0,
            "byteLength" : 1080,
            "byteOffset" : 81048
        },
        {
            "buffer" : 0,
            "byteLength" : 17280,
            "byteOffset" : 82128
        },
        {
            "buffer" : 0,
            "byteLength" : 17280,
            "byteOffset" : 99408
        },
        {
            "buffer" : 0,
            "byteLength" : 11520,
            "byteOffset" : 116688
        },
        {
            "buffer" : 0,
            "byteLength" : 4320,
            "byteOffset" : 128208
        }
    ],
    "samplers" : [
        {
            "magFilter" : 9729,
            "minFilter" : 9987
        }
    ],
    "buffers" : [
        {
            "byteLength" : 132528,
            "uri" : "data:application/octet-stream;base64,"
        }
    ]
}
